<?xml version="1.0" encoding="utf-8"?>
<!-- Generator: Adobe Illustrator 25.0.1, SVG Export Plug-In . SVG Version: 6.00 Build 0)  -->
<svg version="1.0" id="katman_1" xmlns="http://www.w3.org/2000/svg" xmlns:xlink="http://www.w3.org/1999/xlink" x="0px" y="0px"
	 viewBox="0 0 353 208" style="enable-background:new 0 0 353 208;" xml:space="preserve">
<style type="text/css">
	.st0{clip-path:url(#SVGID_2_);}
	.st1{fill:#323232;}
	.st2{fill:#FF3C00;}
</style>
<g>
	<defs>
		<rect id="SVGID_1_" x="39.6" y="69.1" width="272.6" height="70.4"/>
	</defs>
	<clipPath id="SVGID_2_">
		<use xlink:href="#SVGID_1_"  style="overflow:visible;"/>
	</clipPath>
	<g class="st0">
		<path class="st1" d="M110.9,122.4V69.1h8.3v21c2.6-3.9,6.5-5.8,11.7-5.8c4.4,0,7.9,1.3,10.3,3.9c2.4,2.6,3.6,6.3,3.6,11v23.2h-8.3
			v-22c0-6.1-2.7-9.1-8.1-9.1c-2.7,0-4.9,0.8-6.7,2.5c-1.7,1.6-2.6,3.9-2.6,6.9v21.8L110.9,122.4z"/>
		<path class="st1" d="M184,117.8c-3.7,3.7-8.3,5.5-13.9,5.5c-5.6,0-10.2-1.8-13.9-5.5c-3.7-3.7-5.6-8.4-5.6-14
			c0-5.7,1.9-10.3,5.6-14c3.7-3.7,8.3-5.5,13.9-5.5c5.6,0,10.2,1.8,13.9,5.5c3.7,3.7,5.5,8.3,5.5,14
			C189.5,109.5,187.7,114.2,184,117.8z M162.3,113.2c2,2.3,4.6,3.5,7.9,3.5c3.3,0,5.9-1.2,7.9-3.5c2-2.3,3-5.4,3-9.4
			c0-3.9-1-7-3-9.3c-2-2.3-4.6-3.5-7.8-3.5c-3.3,0-5.9,1.1-7.9,3.4c-2,2.3-3,5.4-3,9.3C159.3,107.7,160.3,110.9,162.3,113.2z"/>
		<path class="st1" d="M208.7,123.4c-7.6,0-11.4-4.1-11.4-12.3V92.2h-5.8v-7h6l1.9-11h6.2v11h14.8v7h-14.8v18.6
			c0,3.4,1.3,5.1,3.8,5.1c2.4,0,4.5-2.1,6.4-6.4l6.4,3.3C219,119.9,214.5,123.4,208.7,123.4z"/>
		<path class="st1" d="M224.8,139.5c-3.7,0-6.7-1-9.1-3.1l3.1-6.5c1.5,1.7,3.1,2.6,4.8,2.6c2.3,0,3.5-1.5,3.5-4.4V85.2h8.3v42.9
			c0,4-1,6.9-3,8.6C230.4,138.6,227.9,139.5,224.8,139.5z M231.2,78.9c-1.4,0-2.7-0.5-3.7-1.4c-0.5-0.5-0.9-1-1.1-1.6
			c-0.3-0.6-0.4-1.3-0.3-1.9c0-0.7,0.1-1.3,0.4-1.9c0.3-0.6,0.6-1.2,1.1-1.6c1-0.9,2.3-1.4,3.7-1.4c1.4,0,2.7,0.5,3.7,1.4
			c0.5,0.5,0.9,1,1.1,1.6c0.3,0.6,0.4,1.3,0.4,1.9c0,0.7-0.1,1.3-0.4,1.9s-0.6,1.1-1.1,1.6c-0.5,0.5-1.1,0.8-1.7,1.1
			C232.6,78.8,231.9,79,231.2,78.9z"/>
		<path class="st1" d="M255.9,123.4c-4.2,0-7.7-1.1-10.3-3.2c-2.6-2.1-3.9-5-3.9-8.5c0-3.3,1.4-6,4.1-8.3c2.7-2.3,6.2-3.4,10.3-3.4
			c4.2,0,7.8,1.4,10.7,4.1v-4.5c0-2.7-0.7-4.7-2-6.2c-1.4-1.5-3.3-2.2-5.8-2.2c-5.1,0-8.2,2.6-9.4,7.7l-7.6-1.6c1-4,3-7.1,6.1-9.4
			c3-2.3,6.8-3.5,11.3-3.5c4.9,0,8.8,1.3,11.6,3.9c2.8,2.6,4.3,6.4,4.3,11.3v22.9h-8.1v-4.7C264.4,121.5,260.7,123.4,255.9,123.4z
			 M257.5,117.2c3.7,0,6.8-1.8,9.4-5.5v-1.2c-2.6-3.1-5.7-4.6-9.4-4.6c-2.1,0-3.9,0.5-5.2,1.6c-0.6,0.5-1.1,1.1-1.5,1.8
			c-0.3,0.7-0.5,1.5-0.5,2.3c0,0.8,0.1,1.6,0.5,2.3c0.3,0.7,0.8,1.3,1.5,1.8C253.5,116.7,255.3,117.2,257.5,117.2L257.5,117.2z"/>
		<path class="st1" d="M283.2,122.4V85.2h8.1v6.4c2-4.7,5.6-7.1,10.6-7.1c3,0,5.4,1,7.4,2.9s2.9,4.6,2.9,7.8c0,2-0.4,3.9-1,5.8
			l-7.6-0.8c0.2-1,0.3-2,0.3-3.1c0-3.8-1.6-5.8-4.8-5.8c-2.1,0-4,1.1-5.4,3.4c-1.5,2.3-2.2,5.3-2.2,9v18.5H283.2z"/>
		<path class="st2" d="M59.2,90.9c6.2-3.4,14.6-8.1,14.6-21.8H63.5c0,7.6-3.7,9.7-9.4,12.8c-6.2,3.4-14.6,8.1-14.6,21.8h10.2
			C49.8,96.1,53.5,94.1,59.2,90.9z"/>
		<path class="st2" d="M76.9,87.8c0,7.6-3.7,9.7-9.4,12.8c-6.2,3.4-14.6,8.1-14.6,21.8h10.2c0-7.6,3.7-9.7,9.4-12.8
			c6.2-3.4,14.6-8.1,14.6-21.8H76.9z"/>
	</g>
</g>
</svg>
