<svg width="390" height="101" viewBox="0 0 390 101" fill="none" xmlns="http://www.w3.org/2000/svg">
<path d="M101.794 76.1852V0.10942H113.614V30.1011C117.336 24.5579 122.919 21.7852 130.361 21.7829C136.71 21.7829 141.618 23.6621 145.084 27.4196C148.551 31.1779 150.285 36.4141 150.285 43.1274V76.1852H138.465V44.7695C138.465 36.0866 134.597 31.7455 126.862 31.744C122.993 31.744 119.819 32.9111 117.338 35.2469C114.859 37.582 113.618 40.8653 113.615 45.0978V76.1844L101.794 76.1852ZM206.146 69.62C200.891 74.8737 194.288 77.5005 186.334 77.5005C178.38 77.5005 171.757 74.8737 166.466 69.6192C161.175 64.3648 158.53 57.6871 158.53 49.5847C158.53 41.4831 161.176 34.8244 166.466 29.6095C171.757 24.3931 178.379 21.7845 186.334 21.7829C194.288 21.7814 200.893 24.3908 206.146 29.6095C211.401 34.8282 214.028 41.4861 214.028 49.5847C214.028 57.6833 211.399 64.3625 206.146 69.62ZM175.114 62.9408C177.921 66.2249 181.661 67.867 186.334 67.867C191.006 67.867 194.745 66.2257 197.553 62.9416C200.362 59.6575 201.766 55.2062 201.767 49.5847C201.767 44.0393 200.345 39.6245 197.498 36.3404C194.653 33.0562 190.931 31.4142 186.334 31.4142C181.663 31.4142 177.922 33.038 175.114 36.2849C172.304 39.5325 170.9 43.9648 170.9 49.5825C170.9 55.2054 172.304 59.6582 175.114 62.9408ZM279.447 23.0967V84.394C279.447 90.0853 278.042 94.1909 275.232 96.7083C272.423 99.2257 268.83 100.485 264.453 100.486C259.198 100.486 254.856 99.0266 251.427 96.1072L255.806 86.8027C257.923 89.2829 260.22 90.5238 262.702 90.526C265.985 90.526 267.627 88.4106 267.627 84.1782V23.0967H279.447ZM237.008 7.44664V23.0967H258.134V33.057H237.008V59.6567C237.008 64.5464 238.796 66.9916 242.372 66.9909C245.728 66.9909 248.756 63.9256 251.457 57.7958L260.652 62.5031C256.127 72.5014 249.705 77.4997 241.387 77.499C230.513 77.499 225.075 71.661 225.075 59.9842V33.0578H216.868V23.0967H225.406L228.144 7.44664H237.008ZM273.51 6.85123e-08C275.443 6.85123e-08 277.308 0.721868 278.737 2.02503C279.433 2.67445 279.982 3.46393 280.35 4.34136C280.718 5.2188 280.896 6.16425 280.871 7.11534C280.888 8.04926 280.707 8.97618 280.339 9.83473C279.971 10.6933 279.425 11.4639 278.737 12.0955C278.046 12.7585 277.231 13.2787 276.339 13.6261C275.446 13.9734 274.494 14.1412 273.537 14.1197C271.594 14.1856 269.704 13.4772 268.283 12.1502C267.6 11.5063 267.061 10.7244 266.702 9.85637C266.344 8.98835 266.174 8.05402 266.204 7.11534C266.177 6.16877 266.348 5.22709 266.707 4.35047C267.065 3.47386 267.602 2.68158 268.283 2.02427C269.713 0.721661 271.577 -0.000256777 273.51 6.85123e-08H273.51ZM308.805 77.499C302.748 77.499 297.84 75.9846 294.083 72.9565C290.325 69.9285 288.447 65.8617 288.446 60.7547C288.446 56.0846 290.398 52.1249 294.302 48.8758C298.206 45.6266 303.114 44.0028 309.024 44.0051C315.082 44.0051 320.189 45.9389 324.349 49.8066V43.3478C324.349 39.5538 323.382 36.6169 321.448 34.5357C319.514 32.4544 316.759 31.4149 313.184 31.4157C305.959 31.4157 301.472 35.101 299.72 42.4717L288.883 40.1731C290.341 34.4817 293.223 29.9932 297.53 26.7091C301.839 23.4258 307.202 21.7837 313.621 21.7837C320.627 21.7837 326.156 23.6264 330.205 27.3117C334.255 30.997 336.279 36.3783 336.28 43.4565V76.1859H324.787V69.5075C320.919 74.8357 315.592 77.4997 308.807 77.499H308.805ZM310.992 68.7424C316.247 68.7424 320.699 66.1155 324.349 60.8618V59.2183C320.699 54.8399 316.246 52.6508 310.992 52.6508C307.928 52.6508 305.445 53.3992 303.545 54.8969C302.647 55.5582 301.92 56.4248 301.425 57.4244C300.93 58.424 300.681 59.5276 300.699 60.643C300.671 61.77 300.909 62.8879 301.394 63.9055C301.879 64.9232 302.598 65.8118 303.491 66.4992C305.149 67.829 307.309 68.5676 309.972 68.715L310.992 68.7424ZM347.782 76.1852V23.0967H359.276V32.2911C362.194 25.5777 367.229 22.2206 374.382 22.2206C378.613 22.2206 382.115 23.6074 384.89 26.3801C387.664 29.1536 389.05 32.8746 389.048 37.5447C389.019 40.34 388.539 43.1122 387.626 45.7543L376.788 44.6601C377.011 43.2087 377.157 41.7483 377.226 40.2818C377.226 34.8092 374.964 32.0722 370.441 32.0722C367.375 32.0722 364.802 33.6953 362.723 36.9429C360.644 40.1898 359.603 44.4777 359.603 49.8051V76.1852H347.782Z" fill="#323232"/>
<path d="M67.8632 26.7357C67.8632 40.8037 61.5928 48.2131 54.7921 53.0861L53.4714 53.9995L52.1455 54.8551L50.8256 55.6613L49.5201 56.4242L44.5833 59.1946C44.3265 59.3413 44.0727 59.4872 43.8235 59.6331L42.3699 60.5092C37.2074 63.731 33.924 67.2097 33.6489 75.0833L33.6299 76.1851H19.0208C19.0208 62.5715 24.8946 55.1925 31.437 50.3134L32.7531 49.3696C32.9734 49.2177 33.1938 49.068 33.4141 48.9213L34.7401 48.065L36.06 47.2595L38.6465 45.7702L42.3015 43.7262L43.7999 42.85C49.3727 39.4968 52.9486 36.069 53.2366 27.8367L53.2556 26.7357H67.8632ZM48.8439 0.110135C48.8439 13.7223 42.9709 21.1013 36.4285 25.9804L35.1124 26.9241C34.8921 27.0761 34.6717 27.2258 34.4513 27.3724L33.1254 28.2288L31.8055 29.035L29.2182 30.5243L25.5632 32.5684L24.0648 33.4445C23.8224 33.5904 23.5838 33.7363 23.349 33.8829L21.9889 34.7712C17.6151 37.7742 14.8788 41.2992 14.6281 48.4578L14.6091 49.5596H0C0 35.0371 6.68146 27.6118 13.7307 22.7441L15.0559 21.8612L16.3796 21.0306L17.6941 20.2472L23.2806 17.0999L24.7791 16.2237C30.3519 12.8697 33.9278 9.44199 34.2158 1.21117L34.234 0.109375H48.8439V0.110135Z" fill="#FF3C00"/>
</svg>
